# xmcd
#
# Track frame offsets:
#	150
#	23227
#	48712
#	64055
#	81847
#	99950
#	126547
#	146142
#	168565
#	184657
#
# Disc length: 2723 seconds
#
# Revision: 3
# Processed by: cddbd v1.5.2PL0 Copyright (c) Steve Scherf et al.
# Submitted via: EZCDAudioConverter 8.0.2.1
#
DISCID=8f0aa10a
DTITLE=Thanh Hà - Bước Tình Hồng
DYEAR=1994
DGENRE=R&B
TTITLE0=Tôi với trời bơ vơ
TTITLE1=Ngày vui mùa đông
TTITLE2=Nắng hạ
TTITLE3=Bước Tình Hồng
TTITLE4=Mùa thu cho em
TTITLE5=Xin một ngày mai có nhau
TTITLE6=Mộng dưới hoa
TTITLE7=Nào biết nào hay
TTITLE8=Mưa hồng
TTITLE9=Mộng sầu
EXTD=
EXTT0=
EXTT1=
EXTT2=
EXTT3=
EXTT4=
EXTT5=
EXTT6=
EXTT7=
EXTT8=
EXTT9=
PLAYORDER=
